%TF.GenerationSoftware,KiCad,Pcbnew,10.0.6-10.0.6~ubuntu24.04.1*%
%TF.CreationDate,2026-09-29T17:58:48+02:00*%
%TF.ProjectId,liteplacer_vacuum_sensor,6c697465-706c-4616-9365-725f76616375,rev?*%
%TF.SameCoordinates,Original*%
%TF.FileFunction,Copper,L2,Bot*%
%TF.FilePolarity,Positive*%
%FSLAX46Y46*%
G04 Gerber Fmt 4.6, Leading zero omitted, Abs format (unit mm)*
G04 Created by KiCad (PCBNEW 10.0.6-10.0.6~ubuntu24.04.1) date 2026-09-29 17:58:48*
%MOMM*%
%LPD*%
G01*
G04 APERTURE LIST*
G04 Aperture macros list*
%AMRoundRect*
0 Rectangle with rounded corners*
0 $1 Rounding radius*
0 $2 $3 $4 $5 $6 $7 $8 $9 X,Y pos of 4 corners*
0 Add a 4 corners polygon primitive as box body*
4,1,4,$2,$3,$4,$5,$6,$7,$8,$9,$2,$3,0*
0 Add four circle primitives for the rounded corners*
1,1,$1+$1,$2,$3*
1,1,$1+$1,$4,$5*
1,1,$1+$1,$6,$7*
1,1,$1+$1,$8,$9*
0 Add four rect primitives between the rounded corners*
20,1,$1+$1,$2,$3,$4,$5,0*
20,1,$1+$1,$4,$5,$6,$7,0*
20,1,$1+$1,$6,$7,$8,$9,0*
20,1,$1+$1,$8,$9,$2,$3,0*%
G04 Aperture macros list end*
%TA.AperFunction,ComponentPad*%
%ADD10RoundRect,0.250001X0.799999X-0.799999X0.799999X0.799999X-0.799999X0.799999X-0.799999X-0.799999X0*%
%TD*%
%TA.AperFunction,ComponentPad*%
%ADD11C,2.100000*%
%TD*%
%TA.AperFunction,ViaPad*%
%ADD12C,0.600000*%
%TD*%
G04 APERTURE END LIST*
D10*
%TO.P,J1,1,Pin_1_1*%
%TO.N,+3V3*%
X132567500Y-94015000D03*
D11*
%TO.P,J1,2,Pin_2_2*%
%TO.N,SENSE*%
X132567500Y-91475000D03*
%TO.P,J1,3,Pin_3_3*%
%TO.N,GND*%
X132567500Y-88935000D03*
%TO.P,J1,4,Pin_4_4*%
%TO.N,+5V*%
X132567500Y-86395000D03*
%TD*%
D12*
%TO.N,GND*%
X125000000Y-94000000D03*
X143000000Y-89000000D03*
X107000000Y-83000000D03*
X144000000Y-92000000D03*
X103000000Y-98000000D03*
X122000000Y-99000000D03*
X128000000Y-93000000D03*
X132100000Y-84000000D03*
X93000000Y-82000000D03*
X131000000Y-99000000D03*
X95000000Y-99000000D03*
X97000000Y-82000000D03*
X103000000Y-93000000D03*
X136000000Y-98000000D03*
X108000000Y-99000000D03*
X127000000Y-99000000D03*
X118000000Y-84000000D03*
X117000000Y-99000000D03*
X136000000Y-81000000D03*
X123000000Y-81000000D03*
X107000000Y-90000000D03*
X118000000Y-90000000D03*
%TD*%
%TA.AperFunction,Conductor*%
%TO.N,GND*%
G36*
X144004418Y-80500816D02*
G01*
X144204561Y-80515130D01*
X144222063Y-80517647D01*
X144413795Y-80559355D01*
X144430760Y-80564336D01*
X144614611Y-80632909D01*
X144630694Y-80640253D01*
X144658517Y-80655446D01*
X144802908Y-80734290D01*
X144817791Y-80743855D01*
X144974864Y-80861438D01*
X144988235Y-80873024D01*
X145126975Y-81011764D01*
X145138561Y-81025135D01*
X145256144Y-81182208D01*
X145265709Y-81197091D01*
X145359743Y-81369300D01*
X145367093Y-81385394D01*
X145435661Y-81569234D01*
X145440645Y-81586209D01*
X145482351Y-81777931D01*
X145484869Y-81795442D01*
X145499184Y-81995580D01*
X145499500Y-82004427D01*
X145499500Y-96996249D01*
X145499274Y-97003736D01*
X145481728Y-97293794D01*
X145479923Y-97308659D01*
X145428219Y-97590797D01*
X145424635Y-97605335D01*
X145339304Y-97879174D01*
X145333994Y-97893176D01*
X145216277Y-98154730D01*
X145209319Y-98167987D01*
X145060928Y-98413458D01*
X145052422Y-98425782D01*
X144875525Y-98651573D01*
X144865595Y-98662781D01*
X144662781Y-98865595D01*
X144651573Y-98875525D01*
X144425782Y-99052422D01*
X144413458Y-99060928D01*
X144167987Y-99209319D01*
X144154730Y-99216277D01*
X143893176Y-99333994D01*
X143879174Y-99339304D01*
X143605335Y-99424635D01*
X143590797Y-99428219D01*
X143308659Y-99479923D01*
X143293794Y-99481728D01*
X143003736Y-99499274D01*
X142996249Y-99499500D01*
X95002706Y-99499500D01*
X94997297Y-99499382D01*
X94994823Y-99499274D01*
X94613247Y-99482613D01*
X94602474Y-99481671D01*
X94540007Y-99473447D01*
X94224044Y-99431850D01*
X94213390Y-99429972D01*
X93840724Y-99347353D01*
X93830276Y-99344553D01*
X93466244Y-99229775D01*
X93456078Y-99226075D01*
X93103427Y-99080002D01*
X93093623Y-99075430D01*
X92755057Y-98899183D01*
X92745689Y-98893775D01*
X92423755Y-98688681D01*
X92414894Y-98682476D01*
X92112069Y-98450110D01*
X92103782Y-98443156D01*
X91822364Y-98185284D01*
X91814715Y-98177635D01*
X91556843Y-97896217D01*
X91549889Y-97887930D01*
X91317523Y-97585105D01*
X91311318Y-97576244D01*
X91106224Y-97254310D01*
X91100816Y-97244942D01*
X91038419Y-97125079D01*
X90924566Y-96906369D01*
X90919997Y-96896572D01*
X90896811Y-96840595D01*
X90773920Y-96543911D01*
X90770224Y-96533755D01*
X90767864Y-96526271D01*
X90655445Y-96169720D01*
X90652646Y-96159275D01*
X90625807Y-96038214D01*
X90570025Y-95786601D01*
X90568149Y-95775955D01*
X90555642Y-95680953D01*
X90518326Y-95397505D01*
X90517386Y-95386773D01*
X90512644Y-95278159D01*
X90529386Y-95210328D01*
X90580144Y-95162314D01*
X90648803Y-95149363D01*
X90713564Y-95175588D01*
X90742253Y-95207964D01*
X90874919Y-95424455D01*
X90874924Y-95424462D01*
X90874926Y-95424465D01*
X90977393Y-95565499D01*
X91159399Y-95816009D01*
X91159409Y-95816023D01*
X91395299Y-96092213D01*
X91473729Y-96184042D01*
X91815958Y-96526271D01*
X91857499Y-96561751D01*
X92183976Y-96840590D01*
X92183983Y-96840595D01*
X92575535Y-97125074D01*
X92621454Y-97153213D01*
X92988180Y-97377944D01*
X92988186Y-97377946D01*
X92988200Y-97377955D01*
X93419434Y-97597680D01*
X93866578Y-97782893D01*
X93866583Y-97782895D01*
X93901577Y-97794265D01*
X94326875Y-97932453D01*
X94797488Y-98045437D01*
X95275514Y-98121149D01*
X95758007Y-98159122D01*
X95758015Y-98159122D01*
X96241985Y-98159122D01*
X96241993Y-98159122D01*
X96724486Y-98121149D01*
X97202512Y-98045437D01*
X97673125Y-97932453D01*
X98133422Y-97782893D01*
X98580566Y-97597680D01*
X99011800Y-97377955D01*
X99011815Y-97377945D01*
X99011819Y-97377944D01*
X99161664Y-97286118D01*
X99424465Y-97125074D01*
X99816017Y-96840595D01*
X100184042Y-96526271D01*
X100431602Y-96278711D01*
X140549500Y-96278711D01*
X140549500Y-96521288D01*
X140581161Y-96761785D01*
X140643947Y-96996104D01*
X140709024Y-97153213D01*
X140736776Y-97220212D01*
X140858064Y-97430289D01*
X140858066Y-97430292D01*
X140858067Y-97430293D01*
X141005733Y-97622736D01*
X141005739Y-97622743D01*
X141177256Y-97794260D01*
X141177263Y-97794266D01*
X141251954Y-97851578D01*
X141369711Y-97941936D01*
X141579788Y-98063224D01*
X141719632Y-98121149D01*
X141800703Y-98154730D01*
X141803900Y-98156054D01*
X142038211Y-98218838D01*
X142218586Y-98242584D01*
X142278711Y-98250500D01*
X142278712Y-98250500D01*
X142521289Y-98250500D01*
X142569388Y-98244167D01*
X142761789Y-98218838D01*
X142996100Y-98156054D01*
X143220212Y-98063224D01*
X143430289Y-97941936D01*
X143622738Y-97794265D01*
X143794265Y-97622738D01*
X143941936Y-97430289D01*
X144063224Y-97220212D01*
X144156054Y-96996100D01*
X144218838Y-96761789D01*
X144250500Y-96521288D01*
X144250500Y-96278712D01*
X144218838Y-96038211D01*
X144156054Y-95803900D01*
X144063224Y-95579788D01*
X143941936Y-95369711D01*
X143871689Y-95278163D01*
X143794266Y-95177263D01*
X143794260Y-95177256D01*
X143622743Y-95005739D01*
X143622736Y-95005733D01*
X143430293Y-94858067D01*
X143430292Y-94858066D01*
X143430289Y-94858064D01*
X143220212Y-94736776D01*
X143152998Y-94708935D01*
X142996104Y-94643947D01*
X142761785Y-94581161D01*
X142521289Y-94549500D01*
X142521288Y-94549500D01*
X142278712Y-94549500D01*
X142278711Y-94549500D01*
X142038214Y-94581161D01*
X141803895Y-94643947D01*
X141579794Y-94736773D01*
X141579785Y-94736777D01*
X141369706Y-94858067D01*
X141177263Y-95005733D01*
X141177256Y-95005739D01*
X141005739Y-95177256D01*
X141005733Y-95177263D01*
X140858067Y-95369706D01*
X140736777Y-95579785D01*
X140736773Y-95579794D01*
X140643947Y-95803895D01*
X140581161Y-96038214D01*
X140549500Y-96278711D01*
X100431602Y-96278711D01*
X100526271Y-96184042D01*
X100840595Y-95816017D01*
X101125074Y-95424465D01*
X101302866Y-95134334D01*
X101377944Y-95011819D01*
X101377945Y-95011815D01*
X101377955Y-95011800D01*
X101597680Y-94580566D01*
X101782893Y-94133422D01*
X101932453Y-93673125D01*
X102045437Y-93202512D01*
X102121149Y-92724486D01*
X102159122Y-92241993D01*
X102159122Y-91758007D01*
X102121149Y-91275514D01*
X102045437Y-90797488D01*
X101932453Y-90326875D01*
X101782893Y-89866578D01*
X101597680Y-89419434D01*
X101377955Y-88988200D01*
X101377946Y-88988186D01*
X101377944Y-88988181D01*
X101307318Y-88872930D01*
X101215262Y-88722708D01*
X101125074Y-88575535D01*
X100840595Y-88183983D01*
X100840590Y-88183976D01*
X100526276Y-87815964D01*
X100526271Y-87815958D01*
X100184042Y-87473729D01*
X100103660Y-87405076D01*
X99816023Y-87159409D01*
X99816009Y-87159399D01*
X99583108Y-86990187D01*
X99424465Y-86874926D01*
X99378546Y-86846787D01*
X99011819Y-86622055D01*
X99011812Y-86622052D01*
X99011808Y-86622050D01*
X99011800Y-86622045D01*
X98580566Y-86402320D01*
X98268295Y-86272973D01*
X131017000Y-86272973D01*
X131017000Y-86517027D01*
X131055179Y-86758076D01*
X131122135Y-86964146D01*
X131130597Y-86990187D01*
X131241396Y-87207642D01*
X131384839Y-87405076D01*
X131384843Y-87405081D01*
X131384845Y-87405083D01*
X131557417Y-87577655D01*
X131608088Y-87614470D01*
X131633581Y-87647529D01*
X132397265Y-88411212D01*
X132355208Y-88422482D01*
X132229792Y-88494890D01*
X132127390Y-88597292D01*
X132054982Y-88722708D01*
X132043712Y-88764765D01*
X131309044Y-88030097D01*
X131241819Y-88122626D01*
X131131060Y-88340001D01*
X131055665Y-88572040D01*
X131017500Y-88813006D01*
X131017500Y-89056993D01*
X131055665Y-89297959D01*
X131131060Y-89529998D01*
X131241823Y-89747380D01*
X131309043Y-89839901D01*
X131309044Y-89839902D01*
X132043712Y-89105234D01*
X132054982Y-89147292D01*
X132127390Y-89272708D01*
X132229792Y-89375110D01*
X132355208Y-89447518D01*
X132397265Y-89458787D01*
X131645056Y-90210994D01*
X131644453Y-90213866D01*
X131608090Y-90255528D01*
X131557417Y-90292344D01*
X131384843Y-90464918D01*
X131384839Y-90464923D01*
X131241396Y-90662357D01*
X131130597Y-90879812D01*
X131055178Y-91111927D01*
X131017000Y-91352973D01*
X131017000Y-91597026D01*
X131045189Y-91775006D01*
X131055179Y-91838076D01*
X131130596Y-92070185D01*
X131218136Y-92241993D01*
X131241396Y-92287642D01*
X131348451Y-92434992D01*
X131371931Y-92500798D01*
X131356105Y-92568852D01*
X131313233Y-92613414D01*
X131298844Y-92622289D01*
X131174789Y-92746344D01*
X131174786Y-92746348D01*
X131082687Y-92895662D01*
X131082686Y-92895664D01*
X131027501Y-93062203D01*
X131027500Y-93062204D01*
X131017000Y-93164984D01*
X131017000Y-94865015D01*
X131027500Y-94967795D01*
X131027501Y-94967797D01*
X131055093Y-95051065D01*
X131082686Y-95134335D01*
X131082687Y-95134337D01*
X131174786Y-95283651D01*
X131174789Y-95283655D01*
X131298844Y-95407710D01*
X131298848Y-95407713D01*
X131448162Y-95499812D01*
X131448164Y-95499813D01*
X131448166Y-95499814D01*
X131614703Y-95554999D01*
X131717492Y-95565500D01*
X131717497Y-95565500D01*
X133417503Y-95565500D01*
X133417508Y-95565500D01*
X133520297Y-95554999D01*
X133686834Y-95499814D01*
X133836155Y-95407711D01*
X133960211Y-95283655D01*
X134052314Y-95134334D01*
X134107499Y-94967797D01*
X134118000Y-94865008D01*
X134118000Y-93164992D01*
X134107499Y-93062203D01*
X134052314Y-92895666D01*
X133960211Y-92746345D01*
X133836155Y-92622289D01*
X133836151Y-92622286D01*
X133821769Y-92613415D01*
X133775044Y-92561467D01*
X133763823Y-92492505D01*
X133786548Y-92434992D01*
X133893606Y-92287639D01*
X134004404Y-92070185D01*
X134079821Y-91838076D01*
X134118000Y-91597027D01*
X134118000Y-91352973D01*
X134079821Y-91111924D01*
X134004404Y-90879815D01*
X133893606Y-90662361D01*
X133862657Y-90619763D01*
X133750160Y-90464923D01*
X133750156Y-90464918D01*
X133577581Y-90292343D01*
X133577576Y-90292339D01*
X133526910Y-90255528D01*
X133501419Y-90222471D01*
X132737734Y-89458787D01*
X132779792Y-89447518D01*
X132905208Y-89375110D01*
X133007610Y-89272708D01*
X133080018Y-89147292D01*
X133091287Y-89105235D01*
X133825954Y-89839902D01*
X133825954Y-89839901D01*
X133893178Y-89747377D01*
X134003939Y-89529998D01*
X134079334Y-89297959D01*
X134117500Y-89056993D01*
X134117500Y-88813006D01*
X134079334Y-88572040D01*
X134003939Y-88340001D01*
X133893176Y-88122619D01*
X133825956Y-88030097D01*
X133825954Y-88030096D01*
X133091287Y-88764764D01*
X133080018Y-88722708D01*
X133007610Y-88597292D01*
X132905208Y-88494890D01*
X132779792Y-88422482D01*
X132737732Y-88411212D01*
X133489937Y-87659009D01*
X133490539Y-87656145D01*
X133526908Y-87614472D01*
X133577583Y-87577655D01*
X133750155Y-87405083D01*
X133893606Y-87207639D01*
X134004404Y-86990185D01*
X134079821Y-86758076D01*
X134118000Y-86517027D01*
X134118000Y-86272973D01*
X134079821Y-86031924D01*
X134004404Y-85799815D01*
X133893606Y-85582361D01*
X133774800Y-85418838D01*
X133750160Y-85384923D01*
X133750156Y-85384918D01*
X133577581Y-85212343D01*
X133577576Y-85212339D01*
X133380142Y-85068896D01*
X133380141Y-85068895D01*
X133380139Y-85068894D01*
X133162685Y-84958096D01*
X132930576Y-84882679D01*
X132930574Y-84882678D01*
X132930572Y-84882678D01*
X132762269Y-84856021D01*
X132689527Y-84844500D01*
X132445473Y-84844500D01*
X132389593Y-84853350D01*
X132204427Y-84882678D01*
X131972312Y-84958097D01*
X131754857Y-85068896D01*
X131557423Y-85212339D01*
X131557418Y-85212343D01*
X131384843Y-85384918D01*
X131384839Y-85384923D01*
X131241396Y-85582357D01*
X131130597Y-85799812D01*
X131055178Y-86031927D01*
X131049536Y-86067551D01*
X131017000Y-86272973D01*
X98268295Y-86272973D01*
X98133416Y-86217104D01*
X97805910Y-86110691D01*
X97673125Y-86067547D01*
X97202512Y-85954563D01*
X96724486Y-85878851D01*
X96241998Y-85840878D01*
X96241993Y-85840878D01*
X95758007Y-85840878D01*
X95758001Y-85840878D01*
X95275513Y-85878851D01*
X95275512Y-85878851D01*
X94797493Y-85954562D01*
X94797490Y-85954562D01*
X94797488Y-85954563D01*
X94628948Y-85995025D01*
X94326886Y-86067544D01*
X94326880Y-86067545D01*
X94326875Y-86067547D01*
X94326863Y-86067551D01*
X93866583Y-86217104D01*
X93419441Y-86402317D01*
X93419434Y-86402320D01*
X92988200Y-86622045D01*
X92988196Y-86622047D01*
X92988187Y-86622052D01*
X92988180Y-86622055D01*
X92575544Y-86874920D01*
X92575533Y-86874927D01*
X92183990Y-87159399D01*
X92183976Y-87159409D01*
X91815964Y-87473723D01*
X91815950Y-87473736D01*
X91473736Y-87815950D01*
X91473723Y-87815964D01*
X91159409Y-88183976D01*
X91159399Y-88183990D01*
X90874927Y-88575533D01*
X90874919Y-88575544D01*
X90730227Y-88811661D01*
X90678415Y-88858536D01*
X90609486Y-88869959D01*
X90545323Y-88842302D01*
X90506298Y-88784346D01*
X90500500Y-88746871D01*
X90500500Y-85002706D01*
X90500618Y-84997297D01*
X90500751Y-84994260D01*
X90517387Y-84613224D01*
X90518325Y-84602496D01*
X90568151Y-84224032D01*
X90570024Y-84213402D01*
X90652648Y-83840714D01*
X90655446Y-83830276D01*
X90689810Y-83721288D01*
X90766294Y-83478711D01*
X140549500Y-83478711D01*
X140549500Y-83721288D01*
X140581161Y-83961785D01*
X140643947Y-84196104D01*
X140694872Y-84319047D01*
X140736776Y-84420212D01*
X140858064Y-84630289D01*
X140858066Y-84630292D01*
X140858067Y-84630293D01*
X141005733Y-84822736D01*
X141005739Y-84822743D01*
X141177256Y-84994260D01*
X141177263Y-84994266D01*
X141274521Y-85068894D01*
X141369711Y-85141936D01*
X141579788Y-85263224D01*
X141803900Y-85356054D01*
X142038211Y-85418838D01*
X142218586Y-85442584D01*
X142278711Y-85450500D01*
X142278712Y-85450500D01*
X142521289Y-85450500D01*
X142569388Y-85444167D01*
X142761789Y-85418838D01*
X142996100Y-85356054D01*
X143220212Y-85263224D01*
X143430289Y-85141936D01*
X143622738Y-84994265D01*
X143794265Y-84822738D01*
X143941936Y-84630289D01*
X144063224Y-84420212D01*
X144156054Y-84196100D01*
X144218838Y-83961789D01*
X144250500Y-83721288D01*
X144250500Y-83478712D01*
X144218838Y-83238211D01*
X144156054Y-83003900D01*
X144063224Y-82779788D01*
X143941936Y-82569711D01*
X143794265Y-82377262D01*
X143794260Y-82377256D01*
X143622743Y-82205739D01*
X143622736Y-82205733D01*
X143430293Y-82058067D01*
X143430292Y-82058066D01*
X143430289Y-82058064D01*
X143220212Y-81936776D01*
X143213771Y-81934108D01*
X142996104Y-81843947D01*
X142761785Y-81781161D01*
X142521289Y-81749500D01*
X142521288Y-81749500D01*
X142278712Y-81749500D01*
X142278711Y-81749500D01*
X142038214Y-81781161D01*
X141803895Y-81843947D01*
X141579794Y-81936773D01*
X141579785Y-81936777D01*
X141369706Y-82058067D01*
X141177263Y-82205733D01*
X141177256Y-82205739D01*
X141005739Y-82377256D01*
X141005733Y-82377263D01*
X140858067Y-82569706D01*
X140736777Y-82779785D01*
X140736773Y-82779794D01*
X140643947Y-83003895D01*
X140581161Y-83238214D01*
X140549500Y-83478711D01*
X90766294Y-83478711D01*
X90770230Y-83466227D01*
X90773914Y-83456103D01*
X90920003Y-83103412D01*
X90924561Y-83093638D01*
X91100822Y-82755045D01*
X91106217Y-82745700D01*
X91311325Y-82423744D01*
X91317515Y-82414905D01*
X91549896Y-82112060D01*
X91556834Y-82103791D01*
X91814726Y-81822352D01*
X91822352Y-81814726D01*
X92103791Y-81556834D01*
X92112060Y-81549896D01*
X92414905Y-81317515D01*
X92423744Y-81311325D01*
X92745700Y-81106217D01*
X92755045Y-81100822D01*
X93093638Y-80924561D01*
X93103412Y-80920003D01*
X93456095Y-80773917D01*
X93466227Y-80770230D01*
X93830285Y-80655443D01*
X93840714Y-80652648D01*
X94213402Y-80570024D01*
X94224032Y-80568151D01*
X94602496Y-80518325D01*
X94613224Y-80517387D01*
X94997297Y-80500617D01*
X95002706Y-80500500D01*
X95065892Y-80500500D01*
X143934108Y-80500500D01*
X143995572Y-80500500D01*
X144004418Y-80500816D01*
G37*
%TD.AperFunction*%
%TD*%
M02*
